<svg width="40" height="40" viewBox="0 0 40 40" fill="none" xmlns="http://www.w3.org/2000/svg">
<rect width="40" height="40" rx="20" fill="#F6F8FB"/>
<g clip-path="url(#clip0_77_839)">
<path d="M20 12C19.8011 12 19.6103 12.079 19.4697 12.2197C19.329 12.3603 19.25 12.5511 19.25 12.75C19.25 12.9489 19.329 13.1397 19.4697 13.2803C19.6103 13.421 19.8011 13.5 20 13.5C21.7239 13.5 23.3772 14.1848 24.5962 15.4038C25.8152 16.6228 26.5 18.2761 26.5 20C26.5 21.7239 25.8152 23.3772 24.5962 24.5962C23.3772 25.8152 21.7239 26.5 20 26.5C19.8011 26.5 19.6103 26.579 19.4697 26.7197C19.329 26.8603 19.25 27.0511 19.25 27.25C19.25 27.4489 19.329 27.6397 19.4697 27.7803C19.6103 27.921 19.8011 28 20 28C22.1217 28 24.1566 27.1571 25.6569 25.6569C27.1571 24.1566 28 22.1217 28 20C28 17.8783 27.1571 15.8434 25.6569 14.3431C24.1566 12.8429 22.1217 12 20 12Z" fill="#788BA5"/>
<path d="M12.75 19.2498C12.5511 19.2498 12.3603 19.3289 12.2197 19.4695C12.079 19.6102 12 19.8009 12 19.9998C12 20.1988 12.079 20.3895 12.2197 20.5302C12.3603 20.6708 12.5511 20.7498 12.75 20.7498H19.44L17.72 22.4698C17.6463 22.5385 17.5872 22.6213 17.5462 22.7133C17.5052 22.8053 17.4832 22.9046 17.4814 23.0053C17.4796 23.106 17.4982 23.2061 17.5359 23.2994C17.5736 23.3928 17.6297 23.4777 17.701 23.5489C17.7722 23.6201 17.857 23.6762 17.9504 23.714C18.0438 23.7517 18.1438 23.7702 18.2445 23.7684C18.3452 23.7667 18.4445 23.7446 18.5365 23.7036C18.6285 23.6626 18.7113 23.6035 18.78 23.5298L21.78 20.5298C21.9205 20.3892 21.9993 20.1986 21.9993 19.9998C21.9993 19.8011 21.9205 19.6105 21.78 19.4698L18.78 16.4698C18.6378 16.3374 18.4498 16.2652 18.2555 16.2687C18.0612 16.2721 17.8758 16.3508 17.7384 16.4882C17.601 16.6256 17.5223 16.811 17.5188 17.0053C17.5154 17.1996 17.5875 17.3877 17.72 17.5298L19.44 19.2498H12.75Z" fill="#788BA5"/>
</g>
<defs>
<clipPath id="clip0_77_839">
<rect width="20" height="20" fill="white" transform="translate(10 10)"/>
</clipPath>
</defs>
</svg>
