<svg width="21" height="21" viewBox="0 0 21 21" fill="none" xmlns="http://www.w3.org/2000/svg">
<g clip-path="url(#clip0_77_850)">
<path d="M19.5206 11.1739C19.5206 10.4551 19.4612 9.93012 19.3325 9.38574H10.9494V12.6326H15.87C15.7706 13.4395 15.235 14.6551 14.045 15.4714L14.0281 15.5801L16.6781 17.5926L16.8619 17.6107C18.5487 16.0839 19.5206 13.8382 19.5206 11.1745V11.1739Z" fill="#4285F4"/>
<path d="M10.9487 19.7307C13.3594 19.7307 15.3831 18.9532 16.8612 17.6113L14.0444 15.4719C13.29 15.9875 12.2781 16.3469 10.9487 16.3469C9.82869 16.347 8.7367 15.9965 7.8259 15.3446C6.9151 14.6927 6.23116 13.7721 5.86999 12.7119L5.76561 12.7207L3.00936 14.8107L2.97311 14.9088C4.44124 17.7669 7.45749 19.7307 10.9487 19.7307Z" fill="#34A853"/>
<path d="M5.86999 12.711C5.67502 12.1545 5.57447 11.5694 5.57249 10.9798C5.57249 10.3773 5.68186 9.79414 5.85999 9.24977L5.85499 9.13414L3.06436 7.00977L2.97311 7.05227C2.34862 8.26759 2.02214 9.61401 2.02061 10.9804C2.02061 12.3904 2.36811 13.7223 2.97311 14.9079L5.86999 12.7116V12.711Z" fill="#FBBC05"/>
<path d="M10.9487 5.61359C12.6256 5.61359 13.7562 6.32359 14.4012 6.91672L16.9212 4.50547C15.3737 3.09547 13.36 2.23047 10.9487 2.23047C7.45749 2.23047 4.44124 4.19422 2.97249 7.05234L5.85999 9.24984C6.58374 7.14047 8.58811 5.61359 10.9487 5.61359Z" fill="#EB4335"/>
</g>
<defs>
<clipPath id="clip0_77_850">
<rect width="20" height="20" fill="white" transform="translate(0.769989 0.980469)"/>
</clipPath>
</defs>
</svg>
