<svg width="40" height="40" viewBox="0 0 40 40" fill="none" xmlns="http://www.w3.org/2000/svg">
<rect width="40" height="40" rx="20" fill="#F6F8FB"/>
<circle cx="20" cy="16" r="2.5" stroke="#788BA5" stroke-linecap="round"/>
<path d="M21.7679 14.5C21.9657 14.1574 22.2607 13.8812 22.6154 13.7063C22.9702 13.5313 23.3689 13.4655 23.7611 13.5171C24.1532 13.5687 24.5213 13.7355 24.8187 13.9963C25.1161 14.2571 25.3295 14.6003 25.4319 14.9824C25.5342 15.3644 25.521 15.7683 25.3939 16.1429C25.2667 16.5174 25.0313 16.8459 24.7175 17.0867C24.4037 17.3275 24.0255 17.4698 23.6308 17.4957C23.2361 17.5216 22.8426 17.4298 22.5 17.2321" stroke="#788BA5"/>
<path d="M18.2321 14.5C18.0343 14.1574 17.7393 13.8812 17.3846 13.7063C17.0298 13.5313 16.6311 13.4655 16.2389 13.5171C15.8468 13.5687 15.4787 13.7355 15.1813 13.9963C14.8839 14.2571 14.6705 14.6003 14.5681 14.9824C14.4658 15.3644 14.479 15.7683 14.6061 16.1429C14.7333 16.5174 14.9687 16.8459 15.2825 17.0867C15.5963 17.3275 15.9745 17.4698 16.3692 17.4957C16.7639 17.5216 17.1574 17.4298 17.5 17.2321" stroke="#788BA5"/>
<path d="M20 20.5C24.0802 20.5 25.1335 23.8022 25.4054 25.507C25.4924 26.0524 25.0523 26.5 24.5 26.5H15.5C14.9477 26.5 14.5076 26.0524 14.5946 25.507C14.8665 23.8022 15.9198 20.5 20 20.5Z" stroke="#788BA5" stroke-linecap="round"/>
<path d="M27.2965 23.4162L26.8115 23.5377L27.2965 23.4162ZM21.0871 20.5859L20.7178 20.2488L20.0974 20.9283L21.0051 21.0791L21.0871 20.5859ZM25.1813 24.5L24.701 24.639L24.8055 25H25.1813V24.5ZM23.5 20C24.5277 20 25.2495 20.5027 25.7783 21.2069C26.3177 21.9253 26.6344 22.8306 26.8115 23.5377L27.7816 23.2948C27.5904 22.5315 27.2328 21.4787 26.578 20.6065C25.9126 19.7203 24.9202 19 23.5 19V20ZM21.4563 20.923C21.9567 20.375 22.6107 20 23.5 20V19C22.2828 19 21.3735 19.5306 20.7178 20.2488L21.4563 20.923ZM21.0051 21.0791C23.3056 21.4614 24.2789 23.1801 24.701 24.639L25.6616 24.361C25.1905 22.7326 24.019 20.5663 21.1691 20.0927L21.0051 21.0791ZM26.395 24H25.1813V25H26.395V24ZM26.8115 23.5377C26.8653 23.7526 26.7075 24 26.395 24V25C27.2657 25 28.0152 24.2277 27.7816 23.2948L26.8115 23.5377Z" fill="#788BA5"/>
<path d="M18.9129 20.5859L18.9949 21.0791L19.9026 20.9283L19.2822 20.2488L18.9129 20.5859ZM12.7034 23.4162L13.1885 23.5377L12.7034 23.4162ZM14.8187 24.5V25H15.1945L15.299 24.639L14.8187 24.5ZM16.5 20C17.3893 20 18.0433 20.375 18.5437 20.923L19.2822 20.2488C18.6265 19.5306 17.7172 19 16.5 19V20ZM13.1885 23.5377C13.3656 22.8306 13.6823 21.9253 14.2217 21.2069C14.7505 20.5027 15.4723 20 16.5 20V19C15.0798 19 14.0874 19.7203 13.422 20.6065C12.7671 21.4787 12.4096 22.5315 12.2184 23.2948L13.1885 23.5377ZM13.605 24C13.2925 24 13.1347 23.7526 13.1885 23.5377L12.2184 23.2948C11.9848 24.2277 12.7343 25 13.605 25V24ZM14.8187 24H13.605V25H14.8187V24ZM15.299 24.639C15.7211 23.1801 16.6944 21.4614 18.9949 21.0791L18.8309 20.0927C15.981 20.5663 14.8095 22.7326 14.3384 24.361L15.299 24.639Z" fill="#788BA5"/>
</svg>
