<svg width="16" height="16" viewBox="0 0 16 16" fill="none" xmlns="http://www.w3.org/2000/svg">
<path d="M12.3371 4.39699C12.193 3.45155 11.7148 2.58906 10.9894 1.96586C10.2639 1.34266 9.33922 1 8.38286 1C7.42649 1 6.50177 1.34266 5.77633 1.96586C5.05089 2.58906 4.57275 3.45155 4.42857 4.39699C3.51926 4.39699 2.64719 4.75821 2.00421 5.40119C1.36122 6.04417 1 6.91625 1 7.82556C1 8.73487 1.36122 9.60694 2.00421 10.2499C2.64719 10.8929 3.51926 11.2541 4.42857 11.2541C4.85569 11.2584 5.27931 11.1768 5.67429 11.0141C5.99319 11.4443 6.40843 11.7938 6.88672 12.0346C7.36502 12.2755 7.89307 12.4009 8.42857 12.4009C8.96407 12.4009 9.49212 12.2755 9.97042 12.0346C10.4487 11.7938 10.864 11.4443 11.1829 11.0141C11.5778 11.1768 12.0014 11.2584 12.4286 11.2541C13.3379 11.2541 14.21 10.8929 14.8529 10.2499C15.4959 9.60694 15.8571 8.73487 15.8571 7.82556C15.8571 6.91625 15.4959 6.04417 14.8529 5.40119C14.21 4.75821 13.3379 4.39699 12.4286 4.39699H12.3371Z" stroke="#000001" stroke-linecap="round" stroke-linejoin="round"/>
<path d="M6.62286 7.82556L8.33715 9.53985V15.8256" stroke="#000001" stroke-linecap="round" stroke-linejoin="round"/>
<path d="M8.33716 9.53985L10.0514 7.82556" stroke="#000001" stroke-linecap="round" stroke-linejoin="round"/>
</svg>
